<svg width="88" height="88" viewBox="0 0 88 88" fill="none" xmlns="http://www.w3.org/2000/svg">
<path d="M54.0941 68.5886L68.0706 82.5651C71.9529 86.4474 78.6824 86.4474 82.5647 82.5651C86.7059 78.6827 86.7059 71.9533 82.5647 68.071L68.5882 54.0945C71.1765 49.1769 72.7294 43.4827 72.7294 37.5298C72.7294 36.4945 72.7294 35.4592 72.4706 34.6827L82.0471 25.1063C83.0824 24.071 83.0824 22.518 82.0471 21.4827C81.0118 20.4474 79.4588 20.4474 78.4235 21.4827L71.4353 28.471C69.8824 22.518 66.7765 17.3416 62.3765 12.9416C48.6588 -0.776092 26.6588 -0.776092 12.9412 12.9416C-0.776458 26.6592 -0.776458 48.6592 12.9412 62.3769C24.3294 73.7651 41.153 75.5769 54.0941 68.5886ZM78.6824 71.6945C80.753 73.7651 80.753 76.871 78.6824 78.9416C76.6118 81.0121 73.5059 81.0121 71.4353 78.9416L58.2353 65.7416C59.5294 64.7063 60.8235 63.671 62.1177 62.3769C63.4118 61.0827 64.4471 59.7886 65.4824 58.4945L78.6824 71.6945ZM16.5647 16.5651C28.2118 4.91803 47.1059 4.91803 58.753 16.5651C63.153 20.9651 66 26.6592 67.0353 32.871L61.8588 38.0474L53.3177 29.5063C52.2824 28.471 50.7294 28.471 49.6941 29.5063L36.2353 42.9651L30.2824 37.0121C29.2471 35.9769 27.6941 35.9769 26.6588 37.0121L16.3059 47.3651C15.2706 48.4004 15.2706 49.9533 16.3059 50.9886C17.3412 52.0239 18.8941 52.0239 19.9294 50.9886L28.4706 42.4474C32.353 45.5533 35.2 51.2474 38.0471 48.4004L51.5059 34.9416L60.0471 43.4827C61.0824 44.518 62.6353 44.518 63.6706 43.4827L67.2941 39.8592C66.7765 47.1063 63.6706 53.5769 58.753 58.7533C47.1059 70.4004 28.2118 70.4004 16.5647 58.7533C4.91766 47.1063 4.91766 28.2121 16.5647 16.5651Z" fill="#2D4B8B"/>
</svg>
