<svg width="90" height="90" viewBox="0 0 90 90" fill="none" xmlns="http://www.w3.org/2000/svg">
<path d="M59.4924 17.1306C60.1654 17.1306 60.7111 17.6763 60.7111 18.3494V21.8367L60.8361 21.9792C61.8352 23.1113 62.4426 24.5942 62.4426 26.2175V27.5955H66.2385L66.3849 27.449L69.4533 24.3816C69.8995 23.9353 70.6047 23.9074 71.0832 24.2976L71.176 24.3806C71.6224 24.8269 71.6505 25.5338 71.2599 26.0125L71.1769 26.1042L67.6047 29.6765C67.3762 29.9048 67.0663 30.033 66.7433 30.033H64.174V34.5212H70.3146C70.9876 34.5213 71.5332 35.0671 71.5334 35.74C71.5334 36.4131 70.9877 36.9587 70.3146 36.9587H64.174V41.448H66.7433C67.026 41.448 67.299 41.5458 67.5158 41.7234L67.6047 41.8044L71.1769 45.3757C71.6232 45.8222 71.6505 46.5289 71.2599 47.0076L71.1769 47.1003C70.9388 47.3384 70.6276 47.4568 70.3146 47.4568C70.0023 47.4568 69.6914 47.3383 69.4533 47.1003L66.2385 43.8855H64.0939L64.0129 44.2859C63.2599 48.0039 59.9648 50.8113 56.0295 50.8113C52.0942 50.8111 48.8 48.0039 48.0471 44.2859L47.966 43.8855H45.8205L42.6057 47.1003C42.3675 47.3382 42.0567 47.4568 41.7443 47.4568C41.4705 47.4567 41.1981 47.3658 40.9748 47.1833L40.883 47.1003C40.4368 46.6539 40.4086 45.9472 40.799 45.4685L40.883 45.3757L44.4543 41.8054C44.6828 41.5769 44.9925 41.448 45.3156 41.448H47.8849V36.9597H41.7443C41.0713 36.9597 40.5258 36.4139 40.5256 35.741C40.5256 35.0678 41.0712 34.5222 41.7443 34.5222H47.8849V30.033H45.3156C45.0328 30.033 44.7599 29.9352 44.5432 29.7576L44.4543 29.6765L40.883 26.1042H40.882C40.4364 25.658 40.4085 24.9519 40.799 24.4734L40.883 24.3816C41.3292 23.9354 42.0353 23.9071 42.5139 24.2976L42.6066 24.3816L45.8205 27.5955H49.6164V26.2175C49.6164 24.5942 50.2236 23.1113 51.2228 21.9792L51.3478 21.8376V18.3494C51.3478 17.6763 51.8937 17.1306 52.5666 17.1306C53.2396 17.1307 53.7853 17.6763 53.7853 18.3494V20.1746L54.4113 20.0115C54.9284 19.8766 55.4705 19.8044 56.0295 19.8044C56.5886 19.8045 57.1306 19.8766 57.6476 20.0115L58.2736 20.1746V18.3494C58.2736 17.6763 58.8194 17.1308 59.4924 17.1306ZM50.3224 42.6667C50.3224 45.1557 51.9233 47.2739 54.1457 48.0535L54.8107 48.2869V35.741C54.8107 35.0679 55.3567 34.5223 56.0295 34.5222C56.7026 34.5222 57.2482 35.0678 57.2482 35.741V48.2869L57.9142 48.0535C60.1367 47.2738 61.7367 45.1554 61.7365 42.6667V30.033H50.3224V42.6667ZM56.0295 22.241C53.8366 22.241 52.0531 24.024 52.0529 26.2166V26.7166H52.0539V27.5955H60.0051V26.2166C60.0049 24.024 58.2219 22.241 56.0295 22.241Z" fill="#2D4B8B" stroke="#2D4B8B"/>
<path d="M56.0292 0.5C74.4851 0.5 89.4999 15.5145 89.4999 33.9707C89.4999 52.4266 74.4851 67.4404 56.0292 67.4404C48.9264 67.4404 42.3339 65.2141 36.9101 61.4258L34.4433 63.8926C35.0117 64.698 34.9832 65.7952 34.3525 66.5684L34.2001 66.7373L13.6953 87.2422C12.2391 88.6983 10.2956 89.4999 8.22748 89.5C6.28816 89.5 4.45814 88.7952 3.03705 87.5068L2.75873 87.2422C1.30212 85.7858 0.499572 83.8411 0.499939 81.7725C0.500081 79.7043 1.30261 77.7608 2.75873 76.3047L23.2636 55.7998L23.4257 55.6523C23.8205 55.3288 24.3172 55.1495 24.832 55.1494C25.2915 55.1494 25.7355 55.2941 26.1064 55.5547L28.5722 53.0889C24.7845 47.6655 22.5595 41.073 22.5595 33.9707C22.5596 15.5146 37.5733 0.500147 56.0292 0.5ZM5.89642 79.4424C5.27825 80.0603 4.93744 80.8861 4.93744 81.7734L4.94135 81.9385C4.98071 82.7624 5.3163 83.5245 5.89545 84.1035L6.01459 84.2158C6.61817 84.7629 7.39591 85.0625 8.22748 85.0625C9.1143 85.0624 9.93994 84.7221 10.5576 84.1045V84.1035L29.4931 65.167L24.831 60.5059L5.89642 79.4424ZM56.0292 4.9375C40.0211 4.93765 26.9971 17.9622 26.997 33.9707C26.997 49.9788 40.021 63.0028 56.0292 63.0029C72.0376 63.0029 85.0624 49.9789 85.0624 33.9707C85.0624 17.9621 72.0375 4.9375 56.0292 4.9375ZM29.2695 58.668L31.331 60.7295L33.4296 58.6309C32.7131 57.9736 32.0253 57.286 31.3681 56.5693L29.2695 58.668Z" fill="#2D4B8B" stroke="#2D4B8B"/>
<path d="M78.8329 25.2719C79.433 25.0768 80.0756 25.3718 80.3251 25.9369L80.369 26.0531C81.8567 30.6257 82.0277 35.4879 80.869 40.1459L80.7528 40.5961C80.6072 41.1396 80.115 41.4992 79.577 41.4994C79.5249 41.4994 79.4718 41.4966 79.4188 41.4896L79.2596 41.4574C78.6504 41.2939 78.2733 40.6969 78.3719 40.0873L78.3983 39.9652C79.5243 35.7635 79.4468 31.3617 78.1776 27.2084L78.0516 26.807C77.8568 26.2069 78.1517 25.5652 78.7167 25.3158L78.8329 25.2719Z" fill="#2D4B8B" stroke="#2D4B8B"/>
<path d="M76.5336 20.7256C77.1158 20.3912 77.8592 20.5907 78.1957 21.1719V21.1729L78.225 21.2256L78.227 21.2275C78.5398 21.7753 78.3808 22.464 77.8783 22.8232L77.7729 22.8906C77.5817 22.9999 77.3741 23.0518 77.1693 23.0518C76.7981 23.0516 76.4374 22.8818 76.2025 22.5762L76.1098 22.4365L76.0854 22.3936L76.0834 22.3896L76.0268 22.2783C75.7917 21.7519 75.9599 21.129 76.4281 20.793L76.5336 20.7256Z" fill="#2D4B8B" stroke="#2D4B8B"/>
</svg>
