<svg width="33" height="34" viewBox="0 0 33 34" fill="none" xmlns="http://www.w3.org/2000/svg">
<g clip-path="url(#clip0_36_201)">
<path d="M16.4678 6.43555C19.1607 6.43577 21.3408 8.61559 21.3408 11.3086C21.3407 12.9992 20.472 14.4921 19.165 15.3652C20.2083 15.7057 21.1646 16.2422 21.9893 16.9307C22.5794 16.4147 23.264 16.0071 24.0098 15.7256C23.097 15.02 22.5117 13.9129 22.5117 12.6729C22.5117 10.5348 24.2409 8.80577 26.3789 8.80566C28.517 8.80566 30.2471 10.5347 30.2471 12.6729C30.2471 13.9129 29.6542 15.0183 28.7471 15.7236C31.287 16.6801 33.0867 19.1327 33.0996 22.0098V22.4414C33.0995 22.4801 33.0813 22.5104 33.0625 22.5293C33.0436 22.5482 33.0127 22.5674 32.9736 22.5674H25.0479C25.0855 22.8951 25.1084 23.2325 25.1084 23.5703V24.0146C25.1084 25.9895 23.5091 27.5879 21.5342 27.5879H11.4131C9.43842 27.5876 7.83988 25.9894 7.83984 24.0146V23.5703C7.83985 23.2325 7.86173 22.8951 7.89941 22.5674H0.0263672C-0.0126846 22.5674 -0.0435681 22.5482 -0.0625 22.5293C-0.08131 22.5104 -0.0994734 22.4802 -0.0996094 22.4414V22.0098C-0.0994994 19.1391 1.70581 16.6872 4.24512 15.7305C3.33288 15.0249 2.74716 13.9193 2.74707 12.6797C2.74707 10.5416 4.47617 8.81158 6.61426 8.81152C8.75239 8.81152 10.4814 10.5416 10.4814 12.6797C10.4814 13.9202 9.88913 15.0262 8.98145 15.7314C9.71537 16.0071 10.3889 16.4074 10.9775 16.9111C11.7951 16.2351 12.7393 15.706 13.7695 15.3662C12.4566 14.493 11.5949 12.9993 11.5947 11.3086C11.5947 8.62207 13.7745 6.43555 16.4678 6.43555ZM16.4609 16.1875C16.3935 16.1875 16.3151 16.1867 16.2412 16.1807L16.2422 16.1816C12.2676 16.2976 9.07143 19.5698 9.07129 23.5703V24.0146C9.07133 25.2979 10.1171 26.3437 11.4004 26.3438H21.5215C22.8046 26.3436 23.8505 25.2978 23.8506 24.0146V23.5703C23.8504 19.5698 20.6543 16.2976 16.6797 16.1816V16.1807C16.6061 16.1866 16.5281 16.1875 16.4609 16.1875ZM26.0898 16.542C24.8771 16.6078 23.7694 17.0647 22.8916 17.7959C23.7836 18.7924 24.4446 19.9864 24.8037 21.3154H31.8027C31.4749 18.7219 29.3241 16.6856 26.6787 16.542L26.418 16.5342H26.3408L26.0898 16.542ZM6.29492 16.542C3.6497 16.6857 1.4997 18.722 1.17188 21.3154H8.11816C8.47758 19.9801 9.14971 18.7678 10.0479 17.7705C9.17621 17.0567 8.08122 16.6016 6.88184 16.541L6.63379 16.5342H6.55664L6.29492 16.542ZM26.3789 10.0439C24.9326 10.0441 23.756 11.2197 23.7559 12.666C23.7559 14.1003 24.9015 15.2639 26.3291 15.2891H26.4287C27.8505 15.2576 29.002 14.0933 29.002 12.666C29.0018 11.2196 27.8253 10.0439 26.3789 10.0439ZM6.59473 10.0439C5.1483 10.044 3.97186 11.2196 3.97168 12.666C3.97168 14.1 5.12289 15.2637 6.54395 15.2891H6.64453C8.06634 15.2576 9.21777 14.0933 9.21777 12.666C9.2176 11.2196 8.04117 10.0439 6.59473 10.0439ZM16.4541 7.67969C14.4526 7.67979 12.8262 9.3071 12.8262 11.3086C12.8264 13.2398 14.3447 14.8215 16.2441 14.9297H16.6641C18.5637 14.8217 20.0828 13.24 20.083 11.3086C20.083 9.30704 18.4557 7.67969 16.4541 7.67969Z" fill="#333333" stroke="#333333" stroke-width="0.2"/>
</g>
<defs>
<clipPath id="clip0_36_201">
<rect width="33" height="33" fill="white" transform="translate(0 0.511719)"/>
</clipPath>
</defs>
</svg>
