<svg width="29" height="22" viewBox="0 0 29 22" fill="none" xmlns="http://www.w3.org/2000/svg">
<path d="M28.555 7.05044C28.3896 6.92071 28.191 6.84037 27.982 6.81868C27.773 6.79699 27.5621 6.83483 27.3737 6.92785L20.8208 10.1151L15.427 0.564469C15.3298 0.392961 15.1888 0.250305 15.0185 0.151055C14.8482 0.0518046 14.6546 -0.000488281 14.4574 -0.000488281C14.2603 -0.000488281 14.0667 0.0518046 13.8964 0.151055C13.726 0.250305 13.5851 0.392961 13.4879 0.564469L8.11634 10.0817L1.60808 6.92785C1.41965 6.83483 1.20876 6.79699 0.999741 6.81868C0.790724 6.84037 0.592099 6.92071 0.426784 7.05044C0.261923 7.17971 0.136838 7.35283 0.0658769 7.54994C-0.00508417 7.74706 -0.0190469 7.96018 0.0255901 8.16487L2.67793 20.2787C2.7323 20.5322 2.87333 20.7587 3.07673 20.9194C3.28014 21.0801 3.5332 21.1649 3.79236 21.1591H25.1448C25.4024 21.1654 25.6542 21.0822 25.8574 20.9237C26.0606 20.7652 26.2026 20.5412 26.2592 20.2898L28.9784 8.17601C29.0229 7.96754 29.0066 7.7507 28.9315 7.5512C28.8565 7.3517 28.7258 7.17791 28.555 7.05044ZM24.2533 18.9302H4.66161L2.70022 9.92566L8.08291 12.5446C8.3386 12.6691 8.63222 12.6911 8.90363 12.6062C9.17505 12.5212 9.40371 12.3357 9.54281 12.0877L14.4909 3.37283L19.4278 12.1211C19.5669 12.3691 19.7955 12.5546 20.067 12.6396C20.3384 12.7245 20.632 12.7025 20.8877 12.578L26.3038 9.93681L24.2533 18.9302Z" fill="#333333"/>
</svg>
