<svg width="140" height="140" viewBox="0 0 140 140" fill="none" xmlns="http://www.w3.org/2000/svg">
<path d="M58.8081 11.667C44.3291 11.667 32.5914 23.4046 32.5914 37.8838C32.5914 52.363 44.3291 64.1005 58.8081 64.1005C73.2871 64.1005 85.0249 52.363 85.0249 37.8838C85.0249 23.4046 73.2871 11.667 58.8081 11.667Z" fill="#2D4B8B"/>
<path d="M61.4157 76.9061C62.8897 74.7659 61.4722 71.5016 58.8735 71.501H51.8957C30.3486 71.501 12.8811 88.9683 12.8811 110.515C12.8811 119.309 20.0094 126.437 28.8027 126.437H59.2591C61.8893 126.437 63.3039 123.09 61.7773 120.949C57.296 114.666 54.6601 106.975 54.6601 98.6697C54.6601 90.59 57.1546 83.0924 61.4157 76.9061Z" fill="#2D4B8B"/>
<path fill-rule="evenodd" clip-rule="evenodd" d="M122.739 98.6691C122.739 115.052 109.457 128.333 93.0743 128.333C76.6914 128.333 63.4101 115.052 63.4101 98.6691C63.4101 82.2862 76.6914 69.0049 93.0743 69.0049C109.457 69.0049 122.739 82.2862 122.739 98.6691ZM110.049 87.3974C111.867 88.9899 112.05 91.7537 110.458 93.5714L95.473 110.681C92.6829 113.866 87.7748 114.013 84.7992 110.999L76.384 102.476C74.6865 100.757 74.704 97.9866 76.4237 96.2891C78.1428 94.5916 80.913 94.6091 82.6105 96.3282L87.7205 101.504C88.9105 102.709 90.874 102.651 91.9899 101.376L103.876 87.8063C105.468 85.9886 108.232 85.8055 110.049 87.3974Z" fill="#42CE53"/>
</svg>
