<svg width="23" height="23" viewBox="0 0 23 23" fill="none" xmlns="http://www.w3.org/2000/svg">
<path d="M7.09814 8.78027C7.91229 8.78032 8.69335 9.10399 9.26904 9.67969L9.37354 9.79004C9.8835 10.3532 10.1675 11.0872 10.1675 11.8506V18.9785C10.1675 19.7927 9.84473 20.5737 9.26904 21.1494C8.69335 21.7251 7.91229 22.0488 7.09814 22.0488H3.53369C2.77031 22.0488 2.03629 21.764 1.47314 21.2539L1.36279 21.1494C0.787137 20.5737 0.464372 19.7927 0.464355 18.9785V11.8506C0.464355 11.0365 0.787183 10.2554 1.36279 9.67969L1.47314 9.57422C2.03623 9.06438 2.77048 8.78034 3.53369 8.78027H7.09814ZM18.978 15.9082C19.7922 15.9082 20.5732 16.2319 21.1489 16.8076L21.2534 16.918C21.7634 17.4812 22.0483 18.2151 22.0483 18.9785C22.0483 19.7927 21.7246 20.5737 21.1489 21.1494C20.5732 21.7251 19.7922 22.0488 18.978 22.0488H15.4136C14.6502 22.0487 13.9161 21.764 13.353 21.2539L13.2427 21.1494C12.6671 20.5737 12.3443 19.7926 12.3442 18.9785C12.3442 18.1644 12.6671 17.3833 13.2427 16.8076L13.353 16.7031C13.9162 16.193 14.6502 15.9083 15.4136 15.9082H18.978ZM3.53369 10.168C3.14344 10.168 2.7675 10.3046 2.46826 10.5498L2.34424 10.6611C2.02893 10.9766 1.85205 11.4046 1.85205 11.8506V18.9785C1.85207 19.4245 2.02888 19.8526 2.34424 20.168C2.65961 20.4833 3.0877 20.6601 3.53369 20.6602H7.09814C7.54417 20.6601 7.9722 20.4834 8.2876 20.168C8.60298 19.8526 8.77977 19.4246 8.77979 18.9785V11.8506C8.77979 11.4602 8.64429 11.0835 8.39893 10.7842L8.2876 10.6611C7.9722 10.3457 7.54417 10.168 7.09814 10.168H3.53369ZM15.4136 17.2969C15.0233 17.297 14.6474 17.4325 14.3481 17.6777L14.2251 17.7891C13.9097 18.1045 13.7319 18.5324 13.7319 18.9785C13.7319 19.4246 13.9097 19.8525 14.2251 20.168L14.3481 20.2793C14.6474 20.5245 15.0234 20.6601 15.4136 20.6602H18.978C19.4241 20.6601 19.8521 20.4834 20.1675 20.168C20.4829 19.8525 20.6597 19.4246 20.6597 18.9785C20.6597 18.588 20.5242 18.2115 20.2788 17.9121L20.1675 17.7891C19.8521 17.4736 19.4241 17.2969 18.978 17.2969H15.4136ZM18.978 0.464844C19.7922 0.46486 20.5732 0.787625 21.1489 1.36328L21.2534 1.47363C21.7635 2.03677 22.0483 2.7708 22.0483 3.53418V10.6621C22.0483 11.4762 21.7245 12.2573 21.1489 12.833C20.5732 13.4087 19.7922 13.7324 18.978 13.7324H15.4136C14.6503 13.7323 13.9161 13.4484 13.353 12.9385L13.2427 12.833C12.6672 12.2573 12.3442 11.4762 12.3442 10.6621V3.53418C12.3443 2.72009 12.667 1.93895 13.2427 1.36328L13.353 1.25879C13.9161 0.748777 14.6503 0.464941 15.4136 0.464844H18.978ZM15.4136 1.85254C15.0234 1.85263 14.6473 1.98829 14.3481 2.2334L14.2251 2.34473C13.9097 2.6601 13.732 3.08818 13.7319 3.53418V10.6621C13.7319 11.1082 13.9097 11.5361 14.2251 11.8516L14.3481 11.9639C14.6473 12.2089 15.0235 12.3446 15.4136 12.3447H18.978C19.4241 12.3447 19.8521 12.167 20.1675 11.8516L20.2788 11.7285C20.5241 11.4292 20.6597 11.0525 20.6597 10.6621V3.53418C20.6596 3.08818 20.4829 2.6601 20.1675 2.34473C19.8521 2.02937 19.424 1.85256 18.978 1.85254H15.4136ZM7.09814 0.464844C7.91227 0.464891 8.69335 0.787616 9.26904 1.36328L9.37354 1.47363C9.88356 2.03677 10.1674 2.77082 10.1675 3.53418C10.1675 4.34829 9.84464 5.12936 9.26904 5.70508C8.69335 6.28077 7.91229 6.60444 7.09814 6.60449H3.53369C2.77045 6.60442 2.03624 6.32043 1.47314 5.81055L1.36279 5.70508C0.787227 5.12937 0.464355 4.34827 0.464355 3.53418C0.464428 2.72006 0.787121 1.93895 1.36279 1.36328L1.47314 1.25879C2.03627 0.748787 2.77036 0.464912 3.53369 0.464844H7.09814ZM3.53369 1.85254C3.0877 1.85261 2.65961 2.02935 2.34424 2.34473C2.02887 2.6601 1.85212 3.08818 1.85205 3.53418C1.85205 3.98014 2.02897 4.40822 2.34424 4.72363C2.65961 5.039 3.0877 5.21672 3.53369 5.2168H7.09814C7.54417 5.21675 7.9722 5.03903 8.2876 4.72363C8.60289 4.40822 8.77979 3.98017 8.77979 3.53418C8.77971 3.08818 8.60297 2.6601 8.2876 2.34473C7.97221 2.02936 7.54415 1.85259 7.09814 1.85254H3.53369Z" fill="black" stroke="black" stroke-width="0.2"/>
</svg>
