<svg width="221" height="140" viewBox="0 0 221 140" fill="none" xmlns="http://www.w3.org/2000/svg">
<path d="M77.4882 62.3737C66.7605 70.7994 59.8542 83.8752 59.8542 98.5625V112.375H32.2292C24.5863 112.375 18.4167 106.205 18.4167 98.5625V89.3542C18.4167 71.536 32.8278 57.125 50.6459 57.125H59.8542C66.3922 57.125 72.4236 59.0587 77.4882 62.3737Z" fill="#2D4B8B"/>
<path d="M165.75 57.125C177.193 57.125 186.469 47.8489 186.469 36.4062C186.469 24.9636 177.193 15.6875 165.75 15.6875C154.307 15.6875 145.031 24.9636 145.031 36.4062C145.031 47.8489 154.307 57.125 165.75 57.125Z" fill="#2D4B8B"/>
<path d="M55.25 57.125C66.6926 57.125 75.9688 47.8489 75.9688 36.4062C75.9688 24.9636 66.6926 15.6875 55.25 15.6875C43.8073 15.6875 34.5312 24.9636 34.5312 36.4062C34.5312 47.8489 43.8073 57.125 55.25 57.125Z" fill="#2D4B8B"/>
<path d="M202.583 89.3542V98.5625C202.583 106.205 196.414 112.375 188.771 112.375H161.146V98.5625C161.146 83.8752 154.24 70.7994 143.512 62.3737C148.577 59.0587 154.608 57.125 161.146 57.125H170.354C188.172 57.125 202.583 71.536 202.583 89.3542Z" fill="#2D4B8B"/>
<path d="M110.5 61.7298C124.485 61.7298 135.823 50.3924 135.823 36.4069C135.823 22.4214 124.485 11.084 110.5 11.084C96.5145 11.084 85.177 22.4214 85.177 36.4069C85.177 50.3924 96.5145 61.7298 110.5 61.7298Z" fill="#2D4B8B"/>
<path d="M115.104 61.7285H105.896C85.5869 61.7285 69.0625 78.2529 69.0625 98.5619V112.374C69.0625 119.99 75.2597 126.187 82.875 126.187H138.125C145.74 126.187 151.938 119.99 151.938 112.374V98.5619C151.938 78.2529 135.413 61.7285 115.104 61.7285Z" fill="#2D4B8B"/>
</svg>
