<svg width="29" height="29" viewBox="0 0 29 29" fill="none" xmlns="http://www.w3.org/2000/svg">
<g clip-path="url(#clip0_36_31)">
<path d="M20.1589 21.8534V24.0809C20.1589 26.5375 18.1604 28.5359 15.7039 28.5359H4.51069C2.05414 28.5359 0.0556946 26.5375 0.0556946 24.0809V4.47893C0.0556946 2.02237 2.05414 0.0239258 4.51069 0.0239258H15.7039C18.1604 0.0239258 20.1589 2.02237 20.1589 4.47893V6.70643C20.1589 7.3216 19.6603 7.82018 19.0451 7.82018C18.43 7.82018 17.9314 7.3216 17.9314 6.70643V4.47893C17.9314 3.25076 16.9321 2.25143 15.7039 2.25143H4.51069C3.28252 2.25143 2.28319 3.25076 2.28319 4.47893V24.0809C2.28319 25.3091 3.28252 26.3084 4.51069 26.3084H15.7039C16.9321 26.3084 17.9314 25.3091 17.9314 24.0809V21.8534C17.9314 21.2383 18.43 20.7397 19.0451 20.7397C19.6603 20.7397 20.1589 21.2383 20.1589 21.8534ZM27.7522 12.3668L25.2582 9.87278C24.8231 9.43772 24.1179 9.43772 23.6831 9.87278C23.248 10.3076 23.248 11.0129 23.6831 11.4477L25.457 13.2219H12.0842C11.469 13.2219 10.9704 13.7204 10.9704 14.3356C10.9704 14.9508 11.469 15.4494 12.0842 15.4494H25.457L23.6831 17.2235C23.248 17.6584 23.248 18.3636 23.6831 18.7984C23.9006 19.016 24.1856 19.1247 24.4705 19.1247C24.7557 19.1247 25.0407 19.016 25.2582 18.7984L27.7522 16.3045C28.8379 15.2188 28.8379 13.4524 27.7522 12.3668Z" fill="#333333"/>
</g>
<defs>
<clipPath id="clip0_36_31">
<rect width="28.512" height="28.512" fill="white" transform="translate(0 0.0239258)"/>
</clipPath>
</defs>
</svg>
