<svg width="32" height="26" viewBox="0 0 32 26" fill="none" xmlns="http://www.w3.org/2000/svg">
<path d="M2.54166 5.5H29.4583C30.7703 5.5 31.8333 4.38102 31.8333 3C31.8333 1.61898 30.7703 0.5 29.4583 0.5H2.54166C1.22969 0.5 0.166656 1.61898 0.166656 3C0.166656 4.38102 1.22969 5.5 2.54166 5.5Z" fill="#333333"/>
<path d="M29.4583 10.5H2.54166C1.22969 10.5 0.166656 11.619 0.166656 13C0.166656 14.381 1.22969 15.5 2.54166 15.5H29.4583C30.7703 15.5 31.8333 14.381 31.8333 13C31.8333 11.619 30.7703 10.5 29.4583 10.5Z" fill="#333333"/>
<path d="M29.4583 20.5H2.54166C1.22969 20.5 0.166656 21.619 0.166656 23C0.166656 24.381 1.22969 25.5 2.54166 25.5H29.4583C30.7703 25.5 31.8333 24.381 31.8333 23C31.8333 21.619 30.7703 20.5 29.4583 20.5Z" fill="#333333"/>
</svg>
