<svg width="35" height="36" viewBox="0 0 35 36" fill="none" xmlns="http://www.w3.org/2000/svg">
<path d="M11.1617 19.8625V5.66943C11.1617 5.3314 11.4355 5.05762 11.7735 5.05762H23.2265C23.5645 5.05762 23.8383 5.3314 23.8383 5.66943V8.9017" stroke="#333333" stroke-width="1.2" stroke-miterlimit="10"/>
<path d="M11.1617 22.4549V21.0869" stroke="#333333" stroke-width="1.2" stroke-miterlimit="10"/>
<path d="M23.8383 12.8955V26.868C23.8383 27.2061 23.5645 27.4798 23.2265 27.4798H22.5094L19.5624 24.8125L19.5641 27.4798H11.7735C11.4355 27.4798 11.1617 27.2061 11.1617 26.868V23.7215" stroke="#333333" stroke-width="1.2" stroke-miterlimit="10"/>
<path d="M23.8383 10.291V11.6867" stroke="#333333" stroke-width="1.2" stroke-miterlimit="10"/>
<path d="M17.5 13.4687C19.0668 13.4687 20.3369 12.1986 20.3369 10.6318C20.3369 9.06505 19.0668 7.79492 17.5 7.79492C15.9332 7.79492 14.6631 9.06505 14.6631 10.6318C14.6631 12.1986 15.9332 13.4687 17.5 13.4687Z" stroke="#333333" stroke-width="1.2" stroke-miterlimit="10"/>
<path d="M14.3675 16.3535H20.6325" stroke="#333333" stroke-width="1.2" stroke-miterlimit="10"/>
<path d="M15.6498 19.2002H19.3502" stroke="#333333" stroke-width="1.2" stroke-miterlimit="10"/>
<path d="M17.5916 25.1349H15.265C14.6378 25.1349 14.1295 24.6263 14.1295 23.9991C14.1295 23.6856 14.2567 23.4016 14.4621 23.1958C14.6675 22.9904 14.9516 22.8633 15.265 22.8633H17.5916" stroke="#333333" stroke-width="1.2" stroke-miterlimit="10"/>
<path d="M25.8398 25.9421H31.278C31.6158 25.9421 31.8896 25.6682 31.8896 25.3304V7.20738C31.8896 6.86955 31.6158 6.5957 31.278 6.5957H25.8398" stroke="#333333" stroke-width="1.2" stroke-miterlimit="10"/>
<path d="M25.8398 8.88975C26.1246 8.77388 26.4363 8.70996 26.7627 8.70996C28.1145 8.70996 29.2103 9.80576 29.2103 11.1576C29.2103 12.5094 28.1145 13.6055 26.7627 13.6055C26.4363 13.6055 26.1246 13.5416 25.8398 13.4257" stroke="#333333" stroke-width="1.2" stroke-miterlimit="10"/>
<path d="M29.4656 16.1875H25.8398" stroke="#333333" stroke-width="1.2" stroke-miterlimit="10"/>
<path d="M25.8499 18.999H28.359" stroke="#333333" stroke-width="1.2" stroke-miterlimit="10"/>
<path d="M25.8398 21.958H28.6909C29.2322 21.958 29.671 22.3968 29.671 22.9381C29.671 23.4794 29.2322 23.9182 28.6909 23.9182H25.8398" stroke="#333333" stroke-width="1.2" stroke-miterlimit="10"/>
<path d="M9.16016 6.5957H3.72203C3.3842 6.5957 3.11035 6.86955 3.11035 7.20738V25.3304C3.11035 25.6682 3.3842 25.9421 3.72203 25.9421H9.16016" stroke="#333333" stroke-width="1.2" stroke-miterlimit="10"/>
<path d="M9.16016 13.4257C8.87545 13.5416 8.56373 13.6055 8.23731 13.6055C6.8855 13.6055 5.7897 12.5094 5.7897 11.1576C5.7897 9.80576 6.8855 8.70996 8.23731 8.70996C8.56373 8.70996 8.87545 8.77388 9.16016 8.88975" stroke="#333333" stroke-width="1.2" stroke-miterlimit="10"/>
<path d="M9.16014 16.1875H5.53436" stroke="#333333" stroke-width="1.2" stroke-miterlimit="10"/>
<path d="M9.15006 18.999H6.64093" stroke="#333333" stroke-width="1.2" stroke-miterlimit="10"/>
<path d="M9.16015 21.958H6.30905C5.76775 21.958 5.32895 22.3968 5.32895 22.9381C5.32895 23.4794 5.76775 23.9182 6.30905 23.9182H9.16015" stroke="#333333" stroke-width="1.2" stroke-miterlimit="10"/>
<path d="M22.9083 30.2707L23.7033 32.061L22.1915 32.8085L21.3965 31.0182L19.5668 31.7923L19.5641 27.4799L19.5624 24.8125L22.5094 27.4799L24.7376 29.4965L22.9083 30.2707Z" stroke="#333333" stroke-width="1.2" stroke-miterlimit="10"/>
</svg>
