<svg width="84" height="84" viewBox="0 0 84 84" fill="none" xmlns="http://www.w3.org/2000/svg">
<path d="M47.2919 63.0946C46.9615 63.0946 46.6283 62.977 46.3623 62.7418L42.4451 59.2586C40.3227 57.349 38.6651 54.9466 37.6431 52.3062L32.0067 36.7382C31.2787 34.7306 32.1915 32.5354 34.1319 31.631C37.1251 30.2478 40.8295 31.533 42.3527 34.4674L46.6367 43.0914C47.2527 42.1954 47.5999 41.123 47.5999 40.0114V6.99941C47.5999 3.91101 50.1115 1.39941 53.1999 1.39941C56.2883 1.39941 58.7999 3.91101 58.7999 6.99941V24.5526C59.6231 24.0738 60.5807 23.7994 61.5999 23.7994C63.6355 23.7994 65.4163 24.8886 66.3991 26.5154C67.3735 25.695 68.6307 25.1994 69.9999 25.1994C72.4387 25.1994 74.5191 26.7674 75.2863 28.9458C76.1767 28.3494 77.2491 27.9994 78.3999 27.9994C81.4883 27.9994 83.9999 30.511 83.9999 33.5994V56.2514C83.9999 58.413 83.3615 60.513 82.1603 62.319C81.7347 62.9658 80.8667 63.1366 80.2199 62.7082C79.5787 62.2798 79.4023 61.4118 79.8307 60.7678C80.7267 59.421 81.1999 57.8586 81.1999 56.2514V33.5994C81.1999 32.0566 79.9455 30.7994 78.3999 30.7994C76.8543 30.7994 75.5999 32.0566 75.5999 33.5994C75.5999 34.3722 74.9727 34.9994 74.1999 34.9994C73.4271 34.9994 72.7999 34.3722 72.7999 33.5994V30.7994C72.7999 29.2566 71.5455 27.9994 69.9999 27.9994C68.4543 27.9994 67.1999 29.2566 67.1999 30.7994C67.1999 31.5722 66.5727 32.1994 65.7999 32.1994C65.0271 32.1994 64.3999 31.5722 64.3999 30.7994V29.3994C64.3999 27.8566 63.1455 26.5994 61.5999 26.5994C60.0543 26.5994 58.7999 27.8566 58.7999 29.3994C58.7999 30.1722 58.1727 30.7994 57.3999 30.7994C56.6271 30.7994 55.9999 30.1722 55.9999 29.3994V6.99941C55.9999 5.45661 54.7455 4.19941 53.1999 4.19941C51.6543 4.19941 50.3999 5.45661 50.3999 6.99941V40.0114C50.3999 42.5958 49.1623 45.0598 47.0875 46.597C46.7571 46.8462 46.3343 46.9358 45.9255 46.835C45.5223 46.737 45.1835 46.4682 44.9987 46.0958L39.8495 35.7358C39.0179 34.1258 36.9571 33.409 35.3051 34.1706C34.7059 34.4506 34.4119 35.159 34.6359 35.7834L40.2639 51.3206C41.1319 53.5578 42.4955 55.5346 44.3071 57.1698L48.2187 60.6474C48.7983 61.1598 48.8515 62.0474 48.3363 62.6242C48.0591 62.9378 47.6755 63.0946 47.2919 63.0946Z" fill="#2D4B8B"/>
<path d="M82.5999 83.9992C81.8271 83.9992 81.1999 83.372 81.1999 82.5992V67.1992H47.5999V82.5992C47.5999 83.372 46.9727 83.9992 46.1999 83.9992C45.4271 83.9992 44.7999 83.372 44.7999 82.5992V65.7992C44.7999 65.0264 45.4271 64.3992 46.1999 64.3992H82.5999C83.3727 64.3992 83.9999 65.0264 83.9999 65.7992V82.5992C83.9999 83.372 83.3727 83.9992 82.5999 83.9992Z" fill="#2D4B8B"/>
<path d="M21 78.3988H1.4C0.6272 78.3988 0 77.7716 0 76.9988V57.3988C0 56.626 0.6272 55.9988 1.4 55.9988H21C21.7728 55.9988 22.4 56.626 22.4 57.3988V76.9988C22.4 77.7716 21.7728 78.3988 21 78.3988ZM2.8 75.5988H19.6V58.7988H2.8V75.5988Z" fill="#2D4B8B"/>
<path d="M21 50.4001H1.4C0.6272 50.4001 0 49.7729 0 49.0001V29.4001C0 28.6273 0.6272 28.0001 1.4 28.0001H14C14.7728 28.0001 15.4 28.6273 15.4 29.4001C15.4 30.1729 14.7728 30.8001 14 30.8001H2.8V47.6001H19.6V39.2001C19.6 38.4273 20.2272 37.8001 21 37.8001C21.7728 37.8001 22.4 38.4273 22.4 39.2001V49.0001C22.4 49.7729 21.7728 50.4001 21 50.4001Z" fill="#2D4B8B"/>
<path d="M11.1999 42.0004C10.8415 42.0004 10.4831 41.8632 10.2087 41.5916L6.84871 38.2316C6.30271 37.6856 6.30271 36.798 6.84871 36.252C7.39471 35.706 8.28231 35.706 8.82831 36.252L11.1999 38.6208L20.2327 29.588C20.7787 29.042 21.6663 29.042 22.2123 29.588C22.7583 30.134 22.7583 31.0216 22.2123 31.5676L12.1911 41.5888C11.9167 41.8632 11.5583 42.0004 11.1999 42.0004Z" fill="#2D4B8B"/>
<path d="M21 22.3995H1.4C0.6272 22.3995 0 21.7723 0 20.9995V1.39951C0 0.626712 0.6272 -0.000488281 1.4 -0.000488281H14C14.7728 -0.000488281 15.4 0.626712 15.4 1.39951C15.4 2.17231 14.7728 2.79951 14 2.79951H2.8V19.5995H19.6V11.1995C19.6 10.4267 20.2272 9.79951 21 9.79951C21.7728 9.79951 22.4 10.4267 22.4 11.1995V20.9995C22.4 21.7723 21.7728 22.3995 21 22.3995Z" fill="#2D4B8B"/>
<path d="M11.1999 14.0004C10.8415 14.0004 10.4831 13.8632 10.2087 13.5916L6.84871 10.2316C6.30271 9.68557 6.30271 8.79797 6.84871 8.25197C7.39471 7.70597 8.28231 7.70597 8.82831 8.25197L11.1999 10.6208L20.2327 1.58797C20.7787 1.04197 21.6663 1.04197 22.2123 1.58797C22.7583 2.13397 22.7583 3.02157 22.2123 3.56757L12.1911 13.5916C11.9167 13.8632 11.5583 14.0004 11.1999 14.0004Z" fill="#2D4B8B"/>
<path d="M14.7 72.099C14.3416 72.099 13.9832 71.9619 13.7088 71.6903L6.70882 64.6902C6.16282 64.1442 6.16282 63.2566 6.70882 62.7106C7.25482 62.1646 8.14242 62.1646 8.68842 62.7106L15.6884 69.7106C16.2344 70.2566 16.2344 71.1442 15.6884 71.6903C15.4168 71.9619 15.0584 72.099 14.7 72.099Z" fill="#2D4B8B"/>
<path d="M7.70002 72.099C7.34162 72.099 6.98322 71.9619 6.70882 71.6903C6.16282 71.1442 6.16282 70.2566 6.70882 69.7106L13.7088 62.7106C14.2548 62.1646 15.1424 62.1646 15.6884 62.7106C16.2344 63.2566 16.2344 64.1442 15.6884 64.6902L8.68842 71.6903C8.41682 71.9619 8.05842 72.099 7.70002 72.099Z" fill="#2D4B8B"/>
<path d="M26.6 75.5994C25.8272 75.5994 25.2 74.9722 25.2 74.1994C25.2 73.4266 25.8272 72.6594 26.6 72.6594C27.3728 72.6594 28 73.1466 28 73.9194V74.1994C28 74.9722 27.3728 75.5994 26.6 75.5994Z" fill="#2D4B8B"/>
<path d="M32.1999 75.5994C31.4271 75.5994 30.7999 74.9722 30.7999 74.1994C30.7999 73.4266 31.4271 72.6594 32.1999 72.6594C32.9727 72.6594 33.5999 73.1466 33.5999 73.9194V74.1994C33.5999 74.9722 32.9727 75.5994 32.1999 75.5994Z" fill="#2D4B8B"/>
<path d="M37.7999 75.5994C37.0271 75.5994 36.3999 74.9722 36.3999 74.1994C36.3999 73.4266 37.0271 72.6594 37.7999 72.6594C38.5727 72.6594 39.1999 73.1466 39.1999 73.9194V74.1994C39.1999 74.9722 38.5727 75.5994 37.7999 75.5994Z" fill="#2D4B8B"/>
<path d="M26.6001 19.5999C25.8273 19.5999 25.2001 18.9727 25.2001 18.1999C25.2001 17.4271 25.8273 16.6599 26.6001 16.6599C27.3729 16.6599 28.0001 17.1471 28.0001 17.9199V18.1999C28.0001 18.9727 27.3729 19.5999 26.6001 19.5999Z" fill="#2D4B8B"/>
<path d="M32.2 19.5999C31.4272 19.5999 30.8 18.9727 30.8 18.1999C30.8 17.4271 31.4272 16.6599 32.2 16.6599C32.9728 16.6599 33.6 17.1471 33.6 17.9199V18.1999C33.6 18.9727 32.9728 19.5999 32.2 19.5999Z" fill="#2D4B8B"/>
<path d="M37.8 19.5999C37.0272 19.5999 36.4 18.9727 36.4 18.1999C36.4 17.4271 37.0272 16.6599 37.8 16.6599C38.5728 16.6599 39.2 17.1471 39.2 17.9199V18.1999C39.2 18.9727 38.5728 19.5999 37.8 19.5999Z" fill="#2D4B8B"/>
</svg>
