<svg width="88" height="105" viewBox="0 0 88 105" fill="none" xmlns="http://www.w3.org/2000/svg">
<path d="M87.5775 26.8704C87.5239 24.0529 87.4728 21.3912 87.4728 18.8162C87.4728 16.7988 85.8378 15.1633 83.82 15.1633C68.198 15.1633 56.3039 10.6738 46.3896 1.03418C44.9714 -0.345132 42.7144 -0.344645 41.2966 1.03418C31.3833 10.6738 19.4912 15.1633 3.8702 15.1633C1.85286 15.1633 0.217368 16.7988 0.217368 18.8162C0.217368 21.3916 0.166716 24.0543 0.112654 26.8724C-0.388028 53.0929 -1.07378 89.0031 42.6467 104.157C43.0344 104.292 43.4386 104.359 43.8429 104.359C44.2471 104.359 44.6519 104.292 45.0391 104.157C88.763 89.0026 88.0782 53.0914 87.5775 26.8704ZM43.8434 96.8299C6.34731 83.2087 6.91423 53.37 7.41734 27.0117C7.44754 25.4297 7.47676 23.8965 7.49722 22.3935C22.128 21.7759 33.8278 17.3424 43.8434 8.61745C53.8599 17.3424 65.5616 21.7764 80.1934 22.3935C80.2139 23.896 80.2431 25.4283 80.2733 27.0092C80.7759 53.3685 81.3424 83.2083 43.8434 96.8299Z" fill="#2D4B8B"/>
<path d="M56.4223 39.4914L38.7918 57.121L31.2684 49.5976C29.8419 48.1715 27.5289 48.1715 26.1028 49.5976C24.6763 51.0246 24.6763 53.3371 26.1028 54.7637L36.209 64.8698C36.922 65.5829 37.8572 65.9394 38.7918 65.9394C39.7264 65.9394 40.6616 65.5829 41.3746 64.8698L61.5874 44.6575C63.0145 43.2309 63.0145 40.918 61.5879 39.4919C60.1618 38.0654 57.8489 38.0649 56.4223 39.4914Z" fill="#2D4B8B"/>
</svg>
