<svg width="29" height="30" viewBox="0 0 29 30" fill="none" xmlns="http://www.w3.org/2000/svg">
<g clip-path="url(#clip0_36_17)">
<path d="M15.5 1.90063C17.3121 1.90063 18.8836 2.55133 20.166 3.83325L20.3994 4.07739C21.5277 5.31366 22.0996 6.8014 22.0996 8.50024C22.0996 10.1997 21.5275 11.6872 20.3994 12.9231L20.167 13.1663C18.8845 14.4488 17.3124 15.0999 15.5 15.0999C13.8011 15.0999 12.3134 14.5278 11.0771 13.3997L10.834 13.1672C9.55173 11.8849 8.90044 10.3129 8.90039 8.50024C8.90039 6.68795 9.55169 5.11559 10.834 3.83325L11.0771 3.60083C12.3131 2.47255 13.8005 1.90063 15.5 1.90063ZM15.5 3.68188C14.24 3.68188 13.184 4.0869 12.2734 4.92114L12.0938 5.09302C11.1427 6.04407 10.6816 7.15675 10.6816 8.50024C10.6817 9.84404 11.1428 10.9557 12.0938 11.9065L12.2734 12.0793C13.1844 12.9136 14.2404 13.3186 15.5 13.3186C16.8437 13.3186 17.9562 12.8575 18.9072 11.9065L19.0791 11.7268C19.9132 10.8161 20.3183 9.76014 20.3184 8.50024C20.3184 7.2407 19.9132 6.18444 19.0791 5.27368L18.9072 5.09302C17.9562 4.14218 16.8437 3.68188 15.5 3.68188Z" fill="#333333" stroke="#333333" stroke-width="0.2"/>
<path d="M20.9365 14.9006C21.6641 14.9007 22.3467 15.0211 22.9639 15.261L23.1914 15.3557C23.7133 15.5855 24.1719 15.8836 24.5557 16.2444L24.71 16.3948C25.065 16.756 25.3835 17.1799 25.6592 17.6565L25.875 18.053C26.0803 18.4536 26.2522 18.865 26.3877 19.2805L26.5127 19.6897C26.6322 20.1079 26.7349 20.5517 26.8193 21.0139L26.8965 21.4661C26.9665 21.9114 27.0158 22.3368 27.0439 22.7356L27.0859 23.5286C27.0953 23.7969 27.0995 24.0692 27.0996 24.343L27.0947 24.6096C27.0437 25.838 26.6364 26.8622 25.877 27.6526L25.709 27.8186C24.7961 28.6718 23.5907 29.0999 22.1367 29.0999H8.86328C7.49973 29.0999 6.35551 28.7231 5.46582 27.9729L5.29102 27.8176C4.36597 26.9519 3.90041 25.7798 3.90039 24.343C3.90039 23.797 3.91831 23.2562 3.95508 22.7366L3.99023 22.3284C4.03256 21.9119 4.09598 21.4715 4.17969 21.0139L4.27051 20.5579C4.36696 20.109 4.48102 19.6808 4.61133 19.2805L4.75879 18.8665C4.91812 18.4545 5.11289 18.049 5.33984 17.6565L5.46094 17.4563C5.74858 16.995 6.078 16.5878 6.44336 16.2444L6.6123 16.093C7.0175 15.75 7.49548 15.4709 8.03516 15.261L8.26953 15.177C8.82345 14.9929 9.42549 14.9006 10.0625 14.9006C10.3754 14.9007 10.6694 15.0288 11.1953 15.3655L12.3193 16.0774L12.6064 16.2405C12.9177 16.4009 13.3006 16.5539 13.75 16.6965L13.9688 16.761C14.4781 16.9023 14.9918 16.9739 15.499 16.9739C16.0793 16.9739 16.6678 16.881 17.248 16.6965L17.6758 16.55C18.0802 16.4008 18.4162 16.2423 18.6797 16.0774L19.8027 15.3655H19.8037L20.1582 15.1506C20.4775 14.9724 20.7019 14.9006 20.9365 14.9006ZM20.793 16.8635L19.6553 17.5842C19.29 17.813 18.8483 18.0239 18.3379 18.2141L17.8057 18.3967C17.046 18.6379 16.2696 18.761 15.499 18.761C14.8248 18.761 14.1467 18.6669 13.4785 18.4817L13.1934 18.3967C12.454 18.1623 11.8309 17.8896 11.3447 17.5852H11.3438L10.2051 16.8635C10.0632 16.7727 9.96976 16.7202 9.91309 16.6897C9.58323 16.7004 9.27368 16.7465 8.98828 16.8274L8.70312 16.9231C8.40211 17.0401 8.13627 17.1855 7.91016 17.3567L7.69727 17.5364C7.4812 17.7396 7.27969 17.9805 7.0957 18.2551L6.91797 18.5413C6.73725 18.8539 6.5829 19.1751 6.45703 19.5002L6.33984 19.8264C6.22806 20.1695 6.12989 20.5401 6.0459 20.9319L5.9668 21.3303C5.89165 21.7412 5.8354 22.1335 5.79785 22.5012L5.7666 22.8606C5.73271 23.3391 5.71582 23.8378 5.71582 24.343C5.71583 25.2979 5.98947 26.006 6.54199 26.5227L6.65039 26.6184C7.20283 27.0827 7.9249 27.3137 8.86328 27.3137H22.1367C23.1376 27.3137 23.8924 27.0506 24.458 26.5217L24.5586 26.4231C25.0438 25.9163 25.284 25.2384 25.2842 24.343L25.2715 23.5911C25.2629 23.3436 25.2504 23.0998 25.2334 22.8616L25.2324 22.8538C25.2076 22.5058 25.1639 22.1311 25.1016 21.7356L25.0322 21.3303C24.9583 20.9256 24.8695 20.5397 24.7666 20.179L24.6592 19.8264C24.5527 19.4996 24.416 19.1746 24.2529 18.8567L24.0811 18.5413C23.9093 18.2442 23.7188 17.9799 23.5127 17.7522L23.3018 17.5364C23.102 17.3487 22.8617 17.1858 22.585 17.05L22.2969 16.9231C21.9358 16.7828 21.5287 16.7041 21.085 16.6897L20.793 16.8635Z" fill="#333333" stroke="#333333" stroke-width="0.2"/>
<path d="M73.9355 -30.6279C69.5708 -30.6279 64.1321 -32.5113 58.3737 -34.505C51.0813 -37.0304 42.8152 -39.8923 34.2428 -39.8923C24.3235 -39.8923 18.272 -35.5456 14.9424 -31.8991C13.697 -30.5348 12.7319 -29.1679 12.0003 -27.9553C11.2686 -29.1679 10.3035 -30.5348 9.0582 -31.8991C5.72828 -35.5456 -0.32296 -39.8923 -10.2423 -39.8923C-18.815 -39.8923 -27.0807 -37.0304 -34.3732 -34.505C-40.1321 -32.5113 -45.5708 -30.6279 -49.9355 -30.6279C-51.0759 -30.6279 -52 -29.7038 -52 -28.5634V54.5931C-52 55.7336 -51.0759 56.6577 -49.9355 56.6577C-44.876 56.6577 -39.1182 54.6639 -33.0227 52.5531C-26.0377 50.1346 -18.1207 47.3932 -10.2428 47.3932C-3.48772 47.3932 1.97994 49.63 6.0085 54.0415C6.77705 54.8833 8.0832 54.9425 8.92525 54.1736C9.7673 53.4048 9.8262 52.0989 9.05738 51.2569C5.72745 47.6107 -0.323784 43.2639 -10.2428 43.2639C-18.8155 43.2639 -27.0813 46.1259 -34.3737 48.6512C-39.2556 50.3422 -43.9082 51.9528 -47.871 52.4042V-26.6013C-43.3315 -27.0337 -38.304 -28.7748 -33.0227 -30.6034C-26.0377 -33.0219 -18.1207 -35.7633 -10.2428 -35.7633C5.69001 -35.7633 9.85868 -23.1114 10.0263 -22.5796C10.2928 -21.713 11.0933 -21.1212 12 -21.1212C12.9067 -21.1212 13.7072 -21.7128 13.9737 -22.5796C14.0139 -22.7114 18.2081 -35.7633 34.2428 -35.7633C42.1207 -35.7633 50.0377 -33.0219 57.0227 -30.6034C62.3043 -28.7745 67.3315 -27.0337 71.871 -26.6013V52.4042C67.9082 51.9528 63.2556 50.3422 58.3737 48.6515C51.0813 46.1261 42.8152 43.2642 34.2428 43.2642C24.3232 43.2642 18.2717 47.6109 14.9424 51.2574C14.1735 52.0998 14.2327 53.4053 15.0745 54.1742C15.9168 54.943 17.2227 54.8838 17.9912 54.0421C22.0198 49.6303 27.4874 47.3935 34.2428 47.3935C42.1207 47.3935 50.0377 50.1349 57.0227 52.5534C63.1185 54.6642 68.8763 56.6579 73.9355 56.6579C75.0759 56.6579 76 55.7338 76 54.5934V-28.5634C76 -29.7035 75.0759 -30.6279 73.9355 -30.6279Z" fill="#333333"/>
</g>
<defs>
<clipPath id="clip0_36_17">
<rect width="28.512" height="28.512" fill="white" transform="translate(0 0.511963)"/>
</clipPath>
</defs>
</svg>
